<?xml version="1.0" encoding="UTF-8" standalone="no"?>
<!DOCTYPE svg PUBLIC "-//W3C//DTD SVG 1.1//EN"
 "http://www.w3.org/Graphics/SVG/1.1/DTD/svg11.dtd">
<!-- Generated by graphviz version 2.40.1 (20161225.0304)
 -->
<!-- Title: G Pages: 1 -->
<svg width="353pt" height="240pt"
 viewBox="0.00 0.00 353.00 240.00" xmlns="http://www.w3.org/2000/svg" xmlns:xlink="http://www.w3.org/1999/xlink">
<g id="graph0" class="graph" transform="scale(1 1) rotate(0) translate(4 236)">
<title>G</title>
<polygon fill="#ffffff" stroke="transparent" points="-4,4 -4,-236 349,-236 349,4 -4,4"/>
<g id="clust1" class="cluster">
<title>cluster_Global</title>
<path fill="none" stroke="#c0c0c0" d="M20,-8C20,-8 325,-8 325,-8 331,-8 337,-14 337,-20 337,-20 337,-212 337,-212 337,-218 331,-224 325,-224 325,-224 20,-224 20,-224 14,-224 8,-218 8,-212 8,-212 8,-20 8,-20 8,-14 14,-8 20,-8"/>
<text text-anchor="middle" x="172.5" y="-211.2" font-family="Times,serif" font-size="11.00" fill="#c0c0c0">Global</text>
</g>
<g id="clust2" class="cluster">
<title>cluster_\App</title>
<path fill="none" stroke="#c0c0c0" d="M28,-70C28,-70 129,-70 129,-70 135,-70 141,-76 141,-82 141,-82 141,-184 141,-184 141,-190 135,-196 129,-196 129,-196 28,-196 28,-196 22,-196 16,-190 16,-184 16,-184 16,-82 16,-82 16,-76 22,-70 28,-70"/>
<text text-anchor="middle" x="78.5" y="-183.2" font-family="Times,serif" font-size="11.00" fill="#c0c0c0">App</text>
</g>
<g id="clust3" class="cluster">
<title>cluster_\Feeds</title>
<path fill="none" stroke="#c0c0c0" d="M209,-16C209,-16 317,-16 317,-16 323,-16 329,-22 329,-28 329,-28 329,-184 329,-184 329,-190 323,-196 317,-196 317,-196 209,-196 209,-196 203,-196 197,-190 197,-184 197,-184 197,-28 197,-28 197,-22 203,-16 209,-16"/>
<text text-anchor="middle" x="263" y="-183.2" font-family="Times,serif" font-size="11.00" fill="#c0c0c0">Feeds</text>
</g>
<!-- \\App\\AbstractEntity -->
<g id="node1" class="node">
<title>\\App\\AbstractEntity</title>
<polygon fill="none" stroke="#000000" points="133,-168 24,-168 24,-132 133,-132 133,-168"/>
<text text-anchor="start" x="45" y="-153.2" font-family="Courier,monospace" font-size="11.00" fill="#000000">«abstract»</text>
<text text-anchor="start" x="32" y="-141.2" font-family="Courier,monospace" font-size="11.00" fill="#000000">AbstractEntity</text>
</g>
<!-- \\App\\Filter -->
<g id="node2" class="node">
<title>\\App\\Filter</title>
<polygon fill="none" stroke="#000000" points="106.5,-114 50.5,-114 50.5,-78 106.5,-78 106.5,-114"/>
<text text-anchor="middle" x="78.5" y="-93.2" font-family="Courier,monospace" font-size="11.00" fill="#000000">Filter</text>
</g>
<!-- \\Feeds\\Feed -->
<g id="node3" class="node">
<title>\\Feeds\\Feed</title>
<polygon fill="none" stroke="#000000" points="290,-168 236,-168 236,-132 290,-132 290,-168"/>
<text text-anchor="middle" x="263" y="-147.2" font-family="Courier,monospace" font-size="11.00" fill="#000000">Feed</text>
</g>
<!-- \\Feeds\\Feed&#45;&gt;\\App\\AbstractEntity -->
<g id="edge1" class="edge">
<title>\\Feeds\\Feed&#45;&gt;\\App\\AbstractEntity</title>
<path fill="none" stroke="#000000" d="M235.7764,-150C211.5361,-150 175.1079,-150 143.4127,-150"/>
<polygon fill="none" stroke="#000000" points="143.3098,-146.5001 133.3098,-150 143.3097,-153.5001 143.3098,-146.5001"/>
</g>
<!-- \\Feeds\\FeedValidator -->
<g id="node4" class="node">
<title>\\Feeds\\FeedValidator</title>
<polygon fill="none" stroke="#000000" points="314,-114 212,-114 212,-78 314,-78 314,-114"/>
<text text-anchor="middle" x="263" y="-93.2" font-family="Courier,monospace" font-size="11.00" fill="#000000">FeedValidator</text>
</g>
<!-- \\Feeds\\FeedsController -->
<g id="node5" class="node">
<title>\\Feeds\\FeedsController</title>
<polygon fill="none" stroke="#000000" points="321,-60 205,-60 205,-24 321,-24 321,-60"/>
<text text-anchor="middle" x="263" y="-39.2" font-family="Courier,monospace" font-size="11.00" fill="#000000">FeedsController</text>
</g>
</g>
</svg>
